<?xml version="1.0" standalone="no"?><!DOCTYPE svg PUBLIC "-//W3C//DTD SVG 1.1//EN" "http://www.w3.org/Graphics/SVG/1.1/DTD/svg11.dtd"><svg t="1774958060694" class="icon" viewBox="0 0 1217 1024" version="1.1" xmlns="http://www.w3.org/2000/svg" p-id="17437" xmlns:xlink="http://www.w3.org/1999/xlink" width="950.78125" height="800"><path d="M556.743763 905.956319h233.714915a11.341452 11.341452 0 0 1 5.786455 1.533411l194.714209 112.575481a28.932275 28.932275 0 0 0 43.398412-24.997486l0.202526-77.71209a11.312519 11.312519 0 0 1 11.399317-11.312519h-8.245699a179.119713 179.119713 0 0 0 179.090781-179.090781V360.872263a179.119713 179.119713 0 0 0-179.090781-179.090781H556.743763a179.119713 179.119713 0 0 0-179.090781 179.090781v366.05114a179.061848 179.061848 0 0 0 179.090781 179.032916z" fill="#69EDB7" p-id="17438"></path><path d="M880.438053 764.390699H488.318933a11.341452 11.341452 0 0 0-5.786455 1.53341l-194.714209 112.575481a28.932275 28.932275 0 0 1-43.398412-24.997485l-0.202526-77.71209a11.312519 11.312519 0 0 0-11.399316-11.312519H179.119713a179.119713 179.119713 0 0 1-179.090781-179.090781V179.119713a179.119713 179.119713 0 0 1 179.090781-179.090781h701.31834a179.119713 179.119713 0 0 1 179.09078 179.090781v406.23807a179.119713 179.119713 0 0 1-179.09078 179.032916z" fill="#4BE2AC" p-id="17439"></path><path d="M556.743763 181.781482a179.119713 179.119713 0 0 0-179.090781 179.090781v366.05114a178.512135 178.512135 0 0 0 22.364649 86.796824l82.543779-47.709321a11.341452 11.341452 0 0 1 5.786455-1.53341h392.11912a179.119713 179.119713 0 0 0 179.090781-179.090781V219.306643c0-12.527675 0.202526-22.972226 0-36.049615a258.162688 258.162688 0 0 0-21.786003-1.417681H556.743763z" fill="#06CC76" p-id="17440"></path><path d="M187.162885 360.554008a74.500607 74.500607 0 1 0 74.500608-74.500608 74.500607 74.500607 0 0 0-74.500608 74.500608z" fill="#FFFFFF" p-id="17441"></path><path d="M458.981607 360.554008a74.500607 74.500607 0 1 0 74.500607-74.500608 74.500607 74.500607 0 0 0-74.500607 74.500608z" fill="#FFFFFF" p-id="17442"></path><path d="M733.780352 360.554008a74.500607 74.500607 0 1 0 74.500608-74.500608 74.500607 74.500607 0 0 0-74.500608 74.500608z" fill="#FFFFFF" p-id="17443"></path></svg>